<?xml version="1.0" standalone="no"?>
<!DOCTYPE svg PUBLIC "-//W3C//DTD SVG 1.1//EN" "http://www.w3.org/Graphics/SVG/1.1/DTD/svg11.dtd" >
<svg xmlns="http://www.w3.org/2000/svg">
<metadata>
<json>
<![CDATA[
{
	"fontFamily": "icomoon",
	"majorVersion": 1,
	"minorVersion": 0,
	"version": "Version 1.0",
	"fontId": "icomoon",
	"psName": "icomoon",
	"subFamily": "Regular",
	"fullName": "icomoon",
	"description": "Font generated by IcoMoon."
}
]]>
</json>
</metadata>
<defs>
<font id="icomoon" horiz-adv-x="1024">
<font-face units-per-em="1024" ascent="960" descent="-64" />
<missing-glyph horiz-adv-x="1024" />
<glyph unicode="&#x20;" horiz-adv-x="512" d="" />
<glyph unicode="&#xe900;" glyph-name="audio_icon" data-tags="Audio_icon" d="M863.525 781.040v-518.067c-0.010-32.576-10.761-64.258-30.61-90.103-19.837-25.839-47.647-44.42-79.121-52.851-31.472-8.429-64.841-6.231-94.941 6.236-30.105 12.468-55.25 34.533-71.538 62.753-16.295 28.216-22.807 61.021-18.546 93.32 4.26 32.304 19.046 62.301 42.089 85.338s53.039 37.822 85.344 42.078 65.109-2.27 93.32-18.564v315.835h-333.034v-444.056c-0.010-32.576-10.761-64.258-30.608-90.103-19.837-25.839-47.647-44.42-79.121-52.851s-64.843-6.231-94.943 6.236-55.245 34.533-71.537 62.753c-16.293 28.216-22.808 61.021-18.549 93.32 4.26 32.304 19.046 62.301 42.092 85.338s53.039 37.822 85.342 42.078c32.303 4.255 65.108-2.27 93.32-18.564v389.847h481.061zM308.456 188.967c19.628 0 38.446 7.802 52.334 21.673s21.672 32.701 21.672 52.333c0 19.628-7.804 38.446-21.672 52.333s-32.701 21.673-52.334 21.673c-19.628 0-38.446-7.802-52.334-21.673s-21.671-32.701-21.671-52.333c0-19.628 7.803-38.446 21.671-52.333s32.701-21.673 52.334-21.673zM715.512 188.967c19.628 0 38.446 7.802 52.333 21.673s21.673 32.701 21.673 52.333c0 19.628-7.802 38.446-21.673 52.333s-32.701 21.673-52.333 21.673c-19.628 0-38.446-7.802-52.333-21.673s-21.673-32.701-21.673-52.333c0-19.628 7.802-38.446 21.673-52.333s32.701-21.673 52.333-21.673z" />
<glyph unicode="&#xe901;" glyph-name="camera_icon-1" data-tags="Camera_icon-1" d="M399.988 784.005h224.002l74.665-74.665h149.337c9.899 0 19.396-3.931 26.399-10.937 7.001-6.999 10.937-16.496 10.937-26.399v-522.669c0-9.899-3.931-19.396-10.937-26.399-6.999-7.001-16.496-10.937-26.399-10.937h-672.006c-9.9 0-19.396 3.931-26.399 10.937s-10.937 16.496-10.937 26.399v522.669c0 9.899 3.931 19.396 10.937 26.399 6.999 7.001 16.496 10.937 26.399 10.937h149.337l74.665 74.665zM511.992 186.665c59.412 0 116.384 23.6 158.394 65.608 42.009 42.010 65.608 98.982 65.608 158.394s-23.6 116.384-65.608 158.394c-42.010 42.009-98.982 65.608-158.394 65.608s-116.384-23.6-158.394-65.608c-42.009-42.010-65.608-98.982-65.608-158.394s23.6-116.384 65.608-158.394c42.010-42.009 98.982-65.608 158.394-65.608zM511.992 261.331c-39.606 0-77.592 15.731-105.596 43.741s-43.741 65.99-43.741 105.596c0 39.606 15.731 77.592 43.741 105.596s65.99 43.741 105.596 43.741c39.606 0 77.592-15.731 105.596-43.741s43.741-65.99 43.741-105.596c0-39.606-15.731-77.592-43.741-105.596s-65.99-43.741-105.596-43.741z" />
<glyph unicode="&#xe902;" glyph-name="camera_icon" data-tags="Camera_Icon" d="M403.894 772.321h216.219l72.071-72.071h144.149c9.556 0 18.721-3.794 25.481-10.557 6.758-6.756 10.561-15.923 10.561-25.481v-504.51c0-9.556-3.796-18.721-10.561-25.481-6.753-6.753-15.918-10.556-25.481-10.556h-648.659c-9.556 0-18.722 3.796-25.481 10.556-6.756 6.758-10.557 15.923-10.557 25.481v504.51c0 9.556 3.794 18.722 10.557 25.481s15.923 10.557 25.481 10.557h144.149l72.071 72.071zM511.999 195.74c57.346 0 112.341 22.778 152.891 63.329s63.329 95.545 63.329 152.891c0 57.346-22.778 112.34-63.329 152.89s-95.545 63.329-152.891 63.329c-57.346 0-112.34-22.779-152.89-63.329s-63.329-95.543-63.329-152.89c0-57.346 22.779-112.341 63.329-152.891s95.543-63.329 152.89-63.329zM511.999 267.812c-38.227 0-74.895 15.183-101.926 42.223-27.031 27.028-42.222 63.694-42.222 101.926 0 38.227 15.184 74.895 42.222 101.926s63.699 42.222 101.926 42.222c38.232 0 74.898-15.184 101.926-42.222 27.033-27.031 42.223-63.699 42.223-101.926 0-38.232-15.183-74.898-42.223-101.926-27.028-27.033-63.694-42.223-101.926-42.223z" />
<glyph unicode="&#xe903;" glyph-name="coffe_icon" data-tags="Coffe_icon" d="M651.763 413.052v279.522h-349.403v-279.522c0-18.535 7.363-36.307 20.467-49.413 13.106-13.108 30.878-20.467 49.413-20.467h209.643c18.535 0 36.307 7.363 49.413 20.467 13.108 13.106 20.467 30.878 20.467 49.413zM267.418 762.455h524.105c18.535 0 36.307-7.364 49.413-20.466 13.108-13.107 20.467-30.878 20.467-49.413v-104.82c0-18.535-7.363-36.307-20.467-49.413-13.106-13.108-30.878-20.467-49.413-20.467h-69.879v-104.82c0-37.066-14.724-72.618-40.936-98.827-26.209-26.207-61.761-40.936-98.827-40.936h-209.643c-37.066 0-72.618 14.724-98.827 40.936-26.207 26.209-40.936 61.761-40.936 98.827v314.463c0 9.265 3.679 18.153 10.236 24.707s15.439 10.236 24.707 10.236zM721.643 692.574v-104.82h69.879v104.82h-69.879zM162.597 203.41h628.928v-69.879h-628.928v69.879z" />
<glyph unicode="&#xe904;" glyph-name="delete_icon" data-tags="Delete_icon" horiz-adv-x="975" d="M291.69 761.295v78.324h391.621v-78.324h195.81v-78.324h-78.324v-587.437c0-10.388-4.132-20.345-11.474-27.688s-17.306-11.474-27.688-11.474h-548.274c-10.389 0-20.343 4.132-27.688 11.474s-11.474 17.306-11.474 27.688v587.437h-78.324v78.324h195.81zM252.528 682.971v-548.274h469.947v548.274h-469.947zM370.013 565.486h78.324v-313.295h-78.324v313.295zM526.661 565.486h78.324v-313.295h-78.324v313.295z" />
<glyph unicode="&#xe905;" glyph-name="email_open_icon" data-tags="Envolupe_open" d="M142.931 608.006l349.779 209.711c5.88 3.529 12.604 5.39 19.461 5.39s13.581-1.862 19.463-5.39l349.44-209.749c2.803-1.678 5.126-4.056 6.733-6.902s2.461-6.059 2.459-9.326v-481.001c0-10.031-3.984-19.654-11.081-26.751-7.095-7.095-16.716-11.081-26.749-11.081h-680.875c-10.032 0-19.654 3.986-26.75 11.081-7.096 7.097-11.081 16.716-11.081 26.751v481.038c-0.001 3.266 0.846 6.482 2.459 9.324s3.931 5.226 6.733 6.904zM752.048 555.425l-237.74-205.736-242.62 205.963-48.946-57.65 292.018-247.952 286.76 248.143-49.478 57.228z" />
<glyph unicode="&#xe906;" glyph-name="filter_icon" data-tags="Filter_icon" d="M818.454 243.69v-102.152h-68.101v102.152h-68.101v102.152h204.31v-102.152h-68.101zM273.632 243.69v-102.152h-68.101v102.152h-68.101v102.152h204.31v-102.152h-68.101zM477.941 652.31v102.152h68.101v-102.152h68.101v-102.152h-204.31v102.152h68.101zM477.941 482.051h68.101v-340.514h-68.101v340.514zM205.53 413.949v340.514h68.101v-340.514h-68.101zM750.352 413.949v340.514h68.101v-340.514h-68.101z" />
<glyph unicode="&#xe907;" glyph-name="left_icon" data-tags="Frame-1" d="M172.992 749.325h678.001v-75.333h-678.001v75.333zM398.992 485.659h452.001v-75.333h-452.001v75.333zM172.992 221.992h678.001v-75.333h-678.001v75.333z" />
<glyph unicode="&#xe908;" glyph-name="notification_icon" data-tags="Frame" d="M901.46 165.638h-778.918v77.893h38.947v271.414c0 194.261 156.952 351.721 350.515 351.721s350.515-157.456 350.515-351.721v-271.414h38.947v-77.893zM239.378 243.531h545.243v271.414c0 151.226-122.057 273.829-272.622 273.829s-272.622-122.6-272.622-273.829v-271.414zM414.633 126.691h194.728c0-25.823-10.258-50.585-28.516-68.848-18.261-18.257-43.028-28.516-68.848-28.516s-50.585 10.258-68.848 28.516c-18.258 18.261-28.516 43.028-28.516 68.848z" />
<glyph unicode="&#xe909;" glyph-name="image_icon" data-tags="Image_icon" d="M652.002 87.998l-190.48 349.201 150.48 250.801 320.001-600.003h-280.001zM331.998 527.999l240.001-440.002h-480.002l240.001 440.002zM231.998 608.002c-26.523 0-51.956 10.536-70.712 29.288-18.752 18.754-29.288 44.189-29.288 70.712s10.536 51.956 29.288 70.712c18.754 18.752 44.189 29.288 70.712 29.288s51.956-10.536 70.712-29.288c18.753-18.754 29.288-44.189 29.288-70.712s-10.536-51.956-29.288-70.712c-18.754-18.753-44.189-29.288-70.712-29.288z" />
<glyph unicode="&#xe90a;" glyph-name="email_close_icon" data-tags="Message_icon" d="M175.997 784.006h672.007c9.899 0 19.396-3.931 26.399-10.937s10.937-16.496 10.937-26.399v-597.34c0-9.901-3.93-19.398-10.937-26.399-6.999-6.999-16.495-10.937-26.399-10.937h-672.007c-9.9 0-19.396 3.932-26.399 10.937s-10.937 16.495-10.937 26.399v597.34c0 9.9 3.931 19.396 10.937 26.399s16.496 10.937 26.399 10.937zM514.246 459.833l-239.385 203.28-48.347-56.894 288.214-244.724 283.028 244.909-48.83 56.483-234.679-203.060z" />
<glyph unicode="&#xe90b;" glyph-name="phone_icon" data-tags="Phone_icon" d="M310.665 770.133v-644.267h402.667v644.267h-402.667zM270.4 850.667h483.2c10.679 0 20.919-4.243 28.472-11.795 7.551-7.551 11.793-17.794 11.793-28.472v-724.803c0-10.679-4.242-20.919-11.793-28.472-7.553-7.551-17.794-11.793-28.472-11.793h-483.2c-10.681 0-20.922 4.242-28.472 11.793-7.553 7.553-11.795 17.794-11.795 28.472v724.803c0 10.68 4.242 20.92 11.795 28.472 7.551 7.552 17.794 11.795 28.472 11.795zM512 246.664c10.679 0 20.919-4.242 28.472-11.795 7.551-7.551 11.793-17.794 11.793-28.472s-4.242-20.919-11.793-28.472c-7.553-7.551-17.794-11.793-28.472-11.793-10.681 0-20.922 4.242-28.472 11.793-7.553 7.553-11.795 17.794-11.795 28.472 0 10.681 4.242 20.922 11.795 28.472 7.551 7.553 17.794 11.795 28.472 11.795z" />
<glyph unicode="&#xe90c;" glyph-name="plus_icon" data-tags="Plus_icon" d="M469.326 490.674v256h85.333v-256h256v-85.333h-256v-256h-85.333v256h-256v85.333h256z" />
<glyph unicode="&#xe90d;" glyph-name="search_icon" data-tags="Search_icon" d="M701.702 303.968l138.321-138.291-45.701-45.701-138.291 138.321c-51.449-41.244-115.451-63.684-181.394-63.58-160.434 0-290.653 130.213-290.653 290.652 0 160.434 130.213 290.653 290.653 290.653s290.652-130.213 290.652-290.653c0.103-65.951-22.336-129.944-63.58-181.394zM636.923 327.925c40.985 42.145 63.867 98.64 63.785 157.44 0 124.923-101.182 226.061-226.060 226.061-124.923 0-226.061-101.141-226.061-226.061 0-124.883 101.141-226.060 226.061-226.060 58.783-0.097 115.287 22.793 157.44 63.785l4.85 4.85z" />
<glyph unicode="&#xe90e;" glyph-name="settings_icon" data-tags="Settings_icon" d="M141.125 447.995c0 32.084 4.085 63.164 11.725 92.881 20.489-1.079 40.878 3.534 58.919 13.321s33.007 24.376 43.279 42.138c10.259 17.763 15.414 38.028 14.884 58.54s-6.725 40.475-17.897 57.691c44.843 44.12 100.166 76.086 160.786 92.913 9.315-18.299 23.5-33.671 41-44.404s37.643-16.422 58.169-16.422c20.533 0 40.667 5.685 58.169 16.422 17.497 10.739 31.703 26.108 41.001 44.404 60.617-16.824 115.939-48.793 160.786-92.913-11.187-17.219-17.39-37.193-17.923-57.713s4.623-40.789 14.891-58.562c10.267-17.772 25.257-32.367 43.303-42.153 18.041-9.786 38.453-14.389 58.949-13.294 7.64-29.672 11.725-60.751 11.725-92.836 0-32.082-4.085-63.164-11.725-92.879-20.49 1.092-40.888-3.516-58.924-13.299s-33.025-24.373-43.288-42.132c-10.267-17.764-15.424-38.033-14.896-58.554 0.528-20.516 6.725-40.483 17.897-57.705-44.843-44.118-100.167-76.086-160.786-92.913-9.315 18.299-23.503 33.671-41.001 44.404-17.502 10.742-37.644 16.422-58.169 16.422s-40.669-5.685-58.169-16.422c-17.5-10.737-31.702-26.107-41-44.404-60.617 16.824-115.939 48.795-160.786 92.913 11.187 17.222 17.386 37.194 17.921 57.713s-4.621 40.789-14.888 58.563c-10.267 17.769-25.26 32.364-43.304 42.153-18.043 9.784-38.453 14.386-58.949 13.294-7.606 29.638-11.686 60.711-11.686 92.836zM319.311 336.725c23.365-40.464 30.048-87.016 20.921-130.704 15.127-10.751 31.227-20.066 48.105-27.817 33.996 30.454 78.045 47.289 123.697 47.256 46.73 0 90.423-17.468 123.696-47.256 16.87 7.753 32.971 17.058 48.105 27.817-9.363 44.664-1.916 91.204 20.921 130.704 22.798 39.525 59.378 69.242 102.741 83.452 1.719 18.511 1.719 37.13 0 55.637-43.368 14.201-79.967 43.919-102.775 83.452-22.837 39.504-30.284 86.044-20.921 130.704-15.126 10.755-31.238 20.075-48.105 27.817-33.984-30.454-78.027-47.274-123.662-47.256-45.647-0.027-89.701 16.793-123.697 47.256-16.869-7.751-32.977-17.054-48.105-27.817 9.362-44.664 1.917-91.2-20.921-130.704-22.799-39.525-59.379-69.242-102.741-83.452-1.72-18.507-1.72-37.126 0-55.637 43.368-14.198 79.967-43.915 102.775-83.452h-0.034zM512.026 336.725c-29.515 0-57.809 11.73-78.676 32.596s-32.595 49.176-32.595 78.674c0 29.515 11.729 57.81 32.595 78.677s49.174 32.595 78.676 32.595c29.515 0 57.807-11.729 78.674-32.595s32.596-49.174 32.596-78.677c0-29.515-11.73-57.807-32.596-78.674s-49.176-32.596-78.674-32.596zM512.026 410.905c9.838 0 19.271 3.91 26.225 10.865 6.949 6.953 10.865 16.386 10.865 26.225 0 9.841-3.91 19.277-10.865 26.227s-16.386 10.865-26.225 10.865-19.276-3.91-26.226-10.865-10.865-16.386-10.865-26.227c0-9.838 3.91-19.271 10.865-26.225 6.95-6.949 16.386-10.865 26.226-10.865z" />
<glyph unicode="&#xe90f;" glyph-name="shopping_cart_icon" data-tags="Shopping_cart" horiz-adv-x="1019" d="M112.146 845.353h794.699v-794.699h-794.699v794.699z" />
<glyph unicode="&#xe910;" glyph-name="upload_icon" data-tags="Upload_icon" horiz-adv-x="1078" d="M228.741 176.511h620.547v271.489h77.563v-310.271c0-10.281-4.083-20.15-11.366-27.424s-17.135-11.366-27.424-11.366h-698.118c-10.282 0-20.148 4.083-27.424 11.366s-11.365 17.135-11.365 27.424v310.271h77.563v-271.489zM577.796 564.351v-271.489h-77.563v271.489h-193.926l232.707 232.707 232.707-232.707h-193.926z" />
<glyph unicode="&#xe911;" glyph-name="notes_icon" data-tags="Vector-1" d="M807.423 880.005c23.623 0 42.792-19.358 42.792-43.2v-162.307l-85.577-86.4v205.507h-599.053v-691.209h599.053v119.15l85.577 86.4v-248.75c0-23.843-19.169-43.2-42.792-43.2h-684.635c-23.624 0-42.793 19.358-42.793 43.2v777.609c0 23.843 19.169 43.2 42.793 43.2h684.635zM883.499 585.899l60.51-61.087-332.817-336.014-60.589 0.082 0.082 60.997 332.815 336.014zM507.891 448v-86.4h-213.945v86.4h213.945zM636.26 620.8v-86.4h-342.314v86.4h342.314z" />
<glyph unicode="&#xe912;" glyph-name="weekly_icon" data-tags="Vector-2" d="M512 115.804c88.107 0 172.602 35.003 234.905 97.301 62.3 62.303 97.301 146.798 97.301 234.905 0 88.11-35.003 172.605-97.301 234.906-62.303 62.302-146.798 97.301-234.905 97.301-88.11 0-172.605-35.003-234.906-97.301s-97.301-146.796-97.301-234.906c0-88.107 35.003-172.602 97.301-234.905 62.301-62.3 146.796-97.301 234.906-97.301zM512 32.751c-229.347 0-415.249 185.908-415.249 415.246 0 229.347 185.908 415.249 415.249 415.249s415.246-185.908 415.246-415.249c0-229.344-185.908-415.246-415.246-415.246zM512 364.952c22.028 0 43.154 8.746 58.727 24.322 15.576 15.573 24.322 36.699 24.322 58.727 0 22.031-8.746 43.154-24.322 58.73-15.573 15.576-36.699 24.322-58.727 24.322-22.031 0-43.154-8.746-58.73-24.322s-24.322-36.699-24.322-58.73c0-22.028 8.746-43.154 24.322-58.727 15.576-15.576 36.699-24.322 58.73-24.322zM512 281.903c-44.051 0-86.297 17.5-117.448 48.652s-48.652 73.397-48.652 117.446c0 44.051 17.5 86.297 48.652 117.448s73.397 48.652 117.448 48.652c44.048 0 86.297-17.5 117.446-48.652s48.652-73.397 48.652-117.448c0-44.048-17.5-86.297-48.652-117.446s-73.397-48.652-117.446-48.652z" />
<glyph unicode="&#xe913;" glyph-name="day_icon" data-tags="Vector-3" d="M511.992 234.176c-56.713 0-111.096 22.521-151.193 62.626s-62.627 94.488-62.627 151.193 22.523 111.096 62.627 151.193c40.105 40.104 94.488 62.627 151.193 62.627s111.096-22.523 151.193-62.627c40.105-40.105 62.626-94.488 62.626-151.193s-22.521-111.096-62.626-151.193c-40.105-40.105-94.488-62.626-151.193-62.626zM511.992 305.445c37.805 0 74.066 15.019 100.796 41.751s41.751 62.991 41.751 100.796c0 37.805-15.019 74.066-41.751 100.796s-62.991 41.751-100.796 41.751c-37.805 0-74.066-15.019-100.796-41.751s-41.751-62.991-41.751-100.796c0-37.805 15.019-74.066 41.751-100.796s62.991-41.751 100.796-41.751zM476.351 839.992h71.272v-106.906h-71.272v106.906zM476.351 162.898h71.272v-106.906h-71.272v106.906zM209.619 699.98l50.395 50.395 75.585-75.585-50.395-50.395-75.585 75.585zM688.392 221.196l50.396 50.396 75.585-75.585-50.396-50.396-75.585 75.585zM763.98 750.402l50.396-50.427-75.585-75.585-50.396 50.395 75.585 75.625zM285.197 271.592l50.395-50.396-75.585-75.585-50.395 50.396 75.585 75.585zM903.992 483.633v-71.272h-106.906v71.272h106.906zM226.898 483.633v-71.272h-106.906v71.272h106.906z" />
<glyph unicode="&#xe914;" glyph-name="pdf_icon" data-tags="Vector-4" horiz-adv-x="922" d="M748.999 256.007h-480.007c-8.491 0-16.621-3.38-22.621-9.38s-9.38-14.141-9.38-22.621c0-8.49 3.378-16.621 9.38-22.621s14.141-9.38 22.621-9.38h480.007v-64h-480.007c-25.462 0-49.878 10.112-67.884 28.117s-28.116 42.423-28.116 67.883v480.007c0 16.981 6.74 33.26 18.741 45.263s28.282 18.741 45.263 18.741h512.007v-512.007zM236.993 318.407c5.18 1.060 10.533 1.6 16 1.6h432.007v384.004h-448.007v-385.604zM588.993 544.007h-256.001v64h256.001v-64z" />
<glyph unicode="&#xe915;" glyph-name="add_icon" data-tags="Vector-5" d="M457.145 502.863v329.145h109.711v-329.145h329.145v-109.711h-329.145v-329.145h-109.711v329.145h-329.145v109.711h329.145z" />
<glyph unicode="&#xe916;" glyph-name="tick_icon" data-tags="Vector-6" horiz-adv-x="1243" d="M505.853 274.527l501.057 501.106 77.135-77.076-578.186-578.182-346.901 346.901 77.076 77.076 269.825-269.825z" />
<glyph unicode="&#xe917;" glyph-name="edit_icon" data-tags="Vector-7" horiz-adv-x="960" d="M330.445 259.82h-133.403v133.4l359.509 359.51c5.901 5.899 13.891 9.203 22.232 9.203s16.338-3.316 22.232-9.203l88.947-88.947c5.904-5.901 9.203-13.891 9.203-22.232s-3.315-16.336-9.203-22.232l-359.506-359.507zM197.052 196.935h565.91v-62.883h-565.91v62.883z" />
<glyph unicode="&#xe918;" glyph-name="arrow_down_icon" data-tags="Vector-8" d="M511.998 382.029l307.774 307.774 87.916-87.916-395.689-395.689-395.689 395.689 87.916 87.916 307.774-307.774z" />
<glyph unicode="&#xe919;" glyph-name="arrow_left_icon" data-tags="Vector-9" d="M445.060 448.001l312.281-312.282-89.208-89.208-401.481 401.482 401.481 401.481 89.208-89.208-312.281-312.281z" />
<glyph unicode="&#xe91a;" glyph-name="tick1_icon" data-tags="Vector" d="M414.979 302.477l420.33 420.365 64.71-64.658-485.023-485.023-291.013 291.013 64.658 64.66 226.355-226.356z" />
<glyph unicode="&#xe91b;" glyph-name="video_icon" data-tags="Video_icon2" d="M159.992 761.169c0 21.435 17.402 38.831 38.831 38.831h626.332c21.435 0 38.831-17.402 38.831-38.831v-626.332c-0.017-10.299-4.113-20.174-11.38-27.45-7.282-7.282-17.151-11.374-27.45-11.38h-626.332c-10.298 0.017-20.174 4.113-27.448 11.38-7.282 7.282-11.374 17.151-11.382 27.45v626.332zM238.212 721.782v-547.563h547.563v547.563h-547.563zM458.099 588.209l190.821-127.185c2.143-1.43 3.903-3.366 5.126-5.638s1.857-4.816 1.857-7.386c0-2.574-0.638-5.12-1.857-7.386s-2.97-4.202-5.126-5.638l-190.858-127.185c-2.354-1.562-5.082-2.447-7.899-2.586-2.822-0.133-5.621 0.506-8.118 1.828-2.486 1.334-4.572 3.313-6.029 5.734-1.457 2.416-2.223 5.183-2.237 8.011v254.459c0.007 2.836 0.772 5.61 2.232 8.030s3.542 4.414 6.049 5.742c2.491 1.338 5.302 1.958 8.131 1.826s5.566-1.035 7.914-2.618z" />
<glyph unicode="&#xe91c;" glyph-name="journal_icon" data-tags="Vector-1" horiz-adv-x="960" d="M810.18 315.824v-234.992c-0.010-10.726-4.28-21.017-11.869-28.596s-17.877-11.845-28.61-11.845h-652.762c-5.354 0.034-10.646 1.131-15.575 3.212s-9.401 5.12-13.166 8.934c-3.756 3.809-6.73 8.327-8.739 13.282s-3.032 10.267-2.991 15.617v488.862h244.571c10.813 0 21.176 4.298 28.82 11.942s11.942 18.012 11.942 28.82v244.571h407.703c22.458 0 40.684-18.547 40.684-40.432v-153.469l-366.817-366.858-0.243-172.753 173.072-0.243 193.988 193.949zM841.887 578.132l57.639-57.639-317.050-317.051-57.717 0.078 0.078 57.552 317.050 317.051zM76.465 651.829l203.809 203.686v-203.686h-203.809z" />
<glyph unicode="&#xe91d;" glyph-name="content_icon" data-tags="Vector-2" d="M751.809 128.308h79.886v-79.924h-319.695c-220.714 0-399.619 178.911-399.619 399.619s178.911 399.617 399.619 399.617 399.619-178.911 399.619-399.617c0.052-62.046-14.362-123.25-42.107-178.744s-68.045-103.763-117.702-140.951zM512 527.936c21.199 0 41.527 8.417 56.518 23.405s23.406 35.318 23.406 56.519c0 21.201-8.417 41.529-23.406 56.519s-35.319 23.405-56.518 23.405c-21.201 0-41.529-8.417-56.519-23.405s-23.405-35.318-23.405-56.519c0-21.201 8.417-41.529 23.405-56.519s35.318-23.405 56.519-23.405zM352.152 368.084c21.201 0 41.529 8.417 56.519 23.406 14.99 14.986 23.405 35.314 23.405 56.518 0 21.199-8.417 41.528-23.405 56.517s-35.318 23.405-56.519 23.405c-21.201 0-41.529-8.417-56.519-23.405s-23.405-35.318-23.405-56.517c0-21.204 8.417-41.532 23.405-56.518 14.989-14.991 35.318-23.406 56.519-23.406zM671.848 368.084c21.199 0 41.527 8.417 56.518 23.406 14.991 14.986 23.406 35.314 23.406 56.518 0 21.199-8.417 41.528-23.406 56.517s-35.319 23.405-56.518 23.405c-21.199 0-41.527-8.417-56.518-23.405s-23.406-35.318-23.406-56.517c0-21.204 8.417-41.532 23.406-56.518 14.991-14.991 35.319-23.406 56.518-23.406zM512 208.233c21.199 0 41.527 8.417 56.518 23.406 14.991 14.986 23.406 35.314 23.406 56.518 0 21.199-8.417 41.527-23.406 56.518s-35.319 23.406-56.518 23.406c-21.201 0-41.529-8.417-56.519-23.406s-23.405-35.319-23.405-56.518c0-21.204 8.417-41.532 23.405-56.518 14.989-14.991 35.318-23.406 56.519-23.406z" />
<glyph unicode="&#xe91e;" glyph-name="flip_icon" data-tags="Vector-3" d="M691.048 895.62l223.81-223.809v-627.025c-0.015-11.779-4.7-23.077-13.034-31.401s-19.632-13.005-31.416-13.005h-716.818c-11.756 0.083-23.008 4.784-31.323 13.093s-13.031 19.556-13.123 31.309v806.428c0 24.531 19.919 44.402 44.451 44.402h537.459zM467.238 445.764c-22.628 4.616-46.128 2.121-67.28-7.142-21.152-9.26-38.918-24.843-50.868-44.606s-17.486-42.733-15.863-65.771c1.625-23.033 10.335-45.005 24.938-62.895 14.603-17.885 34.383-30.818 56.626-37.021s45.859-5.376 67.616 2.374c21.752 7.751 40.577 22.040 53.888 40.909 13.311 18.873 20.459 41.395 20.464 64.486v201.427h134.286v89.524h-223.81v-181.284z" />
<glyph unicode="&#xe91f;" glyph-name="cart_icon" data-tags="Vector-4" d="M870.4-0.004h-716.801c-11.883 0-23.274 4.724-31.676 13.124s-13.124 19.797-13.124 31.676v806.401c0 11.883 4.722 23.274 13.124 31.676s19.797 13.124 31.676 13.124h716.801c11.882 0 23.276-4.722 31.676-13.124s13.124-19.797 13.124-31.676v-806.401c0-11.882-4.724-23.276-13.124-31.676s-19.797-13.124-31.676-13.124zM377.6 716.8h-89.6v-89.6c0-59.407 23.603-116.386 65.606-158.395s98.984-65.606 158.395-65.606c59.408 0 116.388 23.604 158.394 65.606 42.010 42.009 65.606 98.984 65.606 158.395v89.6h-89.6v-89.6c0-35.645-14.16-69.83-39.365-95.036s-59.39-39.364-95.035-39.364c-35.645 0-69.83 14.159-95.036 39.364s-39.364 59.39-39.364 95.036v89.6z" />
<glyph unicode="&#xe920;" glyph-name="Vector-5" data-tags="Vector-5" d="M512.008 7.992c-243.016 0-440 196.986-440 440s196.986 440 440 440c243.016 0 440-196.986 440-440s-196.986-440-440-440zM512.008 95.992c93.359 0 182.89 37.089 248.905 103.099 66.014 66.016 103.099 155.547 103.099 248.905s-37.089 182.89-103.099 248.905c-66.016 66.014-155.547 103.099-248.905 103.099s-182.89-37.088-248.905-103.099c-66.014-66.016-103.099-155.547-103.099-248.905s37.088-182.89 103.099-248.905c66.016-66.014 155.547-103.099 248.905-103.099zM451.372 605.732l214.678-143.085c2.413-1.609 4.393-3.784 5.762-6.343 1.367-2.558 2.084-5.416 2.084-8.313s-0.716-5.752-2.084-8.313c-1.369-2.558-3.349-4.734-5.762-6.343l-214.72-143.085c-2.649-1.755-5.72-2.763-8.891-2.909-3.17-0.148-6.327 0.563-9.127 2.063s-5.143 3.722-6.785 6.449c-1.637 2.723-2.506 5.836-2.519 9.011v286.262c0.007 3.182 0.875 6.302 2.513 9.036s3.988 4.963 6.794 6.463 5.968 2.209 9.154 2.056c3.177-0.155 6.255-1.176 8.904-2.943z" />
<glyph unicode="&#xe921;" glyph-name="home_icon" data-tags="Vector" d="M926.678 62.52c0-12.219-4.856-23.934-13.496-32.58-8.64-8.64-20.363-13.496-32.58-13.496h-737.208c-12.219 0-23.938 4.856-32.58 13.496-8.642 8.645-13.496 20.363-13.496 32.58v484.256c-0.005 7.022 1.592 13.948 4.676 20.257s7.567 11.831 13.108 16.141l368.602 286.682c8.088 6.29 18.045 9.707 28.293 9.707s20.203-3.418 28.293-9.707l368.602-286.682c5.541-4.311 10.025-9.833 13.108-16.141s4.68-13.24 4.675-20.257v-484.256z" />
<glyph unicode="&#xe922;" glyph-name="physical_icon" data-tags="Vector" d="M205.073 529.205h613.931l-48.724 243.621h-516.477l-48.724-243.621zM552.64 447.997v-324.826h162.413v-81.208h-406.035v81.208h162.414v324.826h-325.157c-22.255 0-36.785 17.461-32.358 39.667l65.372 326.697c4.39 21.926 25.986 39.667 48.521 39.667h568.372c22.457 0 44.133-17.459 48.56-39.667l65.37-326.697c4.39-21.926-10.555-39.667-32.358-39.667h-325.119z" />
</font>
</defs>
</svg>
